<svg width="126" height="81" viewBox="0 0 126 81" fill="none" xmlns="http://www.w3.org/2000/svg">
<path d="M116.462 0.736245C114.917 0.816531 113.401 1.07542 111.972 1.50281H111.953C110.581 1.89124 104.06 3.85062 94.1463 6.82062L58.6204 17.5078C33.1286 25.1734 8.06993 32.7222 8.06993 32.7222L8.3683 32.6397C8.3683 32.6397 6.64062 33.0453 4.83593 33.9287C3.72101 34.4355 2.76161 35.0986 2.0158 35.8778C1.1303 36.8059 0.418054 38.2256 0.682741 39.6934C1.11587 42.1753 3.36812 43.6637 4.98512 44.4853C6.62136 45.3172 8.18061 45.7056 8.18061 45.7056H8.21912L31.7186 51.3603C32.7725 53.7769 38.8795 68.1181 40.3474 71.4216C41.2136 73.3947 42.0558 74.6288 43.1097 75.5706C43.6199 76.0519 44.2166 76.4541 44.9337 76.7772C45.3064 76.9321 45.7039 77.0544 46.1175 77.1416L45.8769 77.1003C45.9491 77.1141 46.0069 77.1553 46.0598 77.1691C46.2523 77.2069 46.3822 77.2206 46.6277 77.2481C50.3477 78.0525 53.3363 76.4025 53.3363 76.4025L53.5047 76.3062L67.3792 67.2828L90.6332 80.0256L91.1625 80.1872C96.0087 81.7066 100.917 80.8609 103.511 79.3691C106.125 77.8669 107.14 75.9453 107.14 75.9453L107.308 75.6359L125.278 9.88C125.788 8.2575 125.918 6.73812 125.355 5.26343C124.775 3.77096 123.434 2.48733 121.597 1.66437C120.054 0.994453 118.265 0.6711 116.462 0.736245ZM115.976 7.78312C115.957 7.99968 116.014 7.97562 115.88 8.39156V8.42937L98.0781 73.5012C98.0011 73.5941 97.8712 73.7969 97.515 73.9997C97.1397 74.2128 96.8413 74.3469 95.2772 73.9034L66.8354 58.3281L49.6547 69.5137L53.2641 53.0481L99.7336 22.1106C101.649 20.8387 101.009 20.5706 101.009 20.5706C101.144 19.01 98.1166 20.1134 98.1166 20.1134L39.5196 46.0425L39.5004 45.9737L11.4146 39.2191V39.2053L11.3424 39.195C11.3917 39.1833 11.4399 39.1695 11.4868 39.1537L11.6408 39.0987L11.79 39.0609C11.79 39.0609 36.8679 31.5122 62.3597 23.8466C75.1225 20.0069 87.9815 16.1397 97.8712 13.1559C107.761 10.1894 115.071 8.01343 115.485 7.89656C115.88 7.78656 115.692 7.78656 115.976 7.78656V7.78312Z" fill="black"/>
</svg>
