<svg width="600" height="388" viewBox="0 0 600 388" fill="none" xmlns="http://www.w3.org/2000/svg">
<path d="M0 53.3787C0 33.8639 11.4624 23.3412 34.3874 21.8107L122.727 22.3846C128.656 22.3846 132.609 25.2544 134.585 30.9941C143.676 59.6923 153.854 84.4684 165.119 105.322C176.383 126.177 191.107 150.187 209.289 177.355C210.87 180.799 213.439 182.521 216.996 182.521C219.763 182.521 221.937 181.181 223.518 178.503L225.296 172.189L225.889 72.8935C225.889 66.0059 224.209 61.4142 220.85 59.1183C217.49 56.8225 211.265 55.1006 202.174 53.9527C195.059 52.8047 191.502 48.5957 191.502 41.3254C191.502 39.7949 191.7 38.6469 192.095 37.8817C200.395 13.0099 224.111 0.573964 263.241 0.573964L296.443 0C311.462 0 323.913 3.63511 333.794 10.9053C343.676 18.1755 348.617 29.6548 348.617 45.3432V175.633C351.383 177.546 353.953 178.503 356.324 178.503C362.253 178.503 367.391 175.059 371.739 168.172C415.217 109.245 438.735 69.8323 442.292 49.9349C442.292 49.5523 442.688 48.5957 443.478 47.0651C446.245 41.3254 450.791 36.3511 457.115 32.142C463.439 27.9329 468.972 25.0631 473.715 23.5325C475.296 22.7673 477.075 22.3846 479.051 22.3846H570.949L576.877 22.9586C584.783 22.9586 590.909 26.5937 595.257 33.8639C596.838 36.1598 597.925 38.6469 598.518 41.3254C599.111 44.0039 599.506 46.6824 599.704 49.3609C599.901 52.0394 600 53.57 600 53.9527V57.9704C597.233 73.6588 590.217 90.3994 578.953 108.192C567.688 125.985 553.36 145.213 535.968 165.876C518.577 186.538 507.708 200.122 503.36 206.627C499.802 211.219 498.024 215.428 498.024 219.254C498.024 222.316 499.605 225.759 502.767 229.586L589.328 335.195C594.071 341.318 596.443 348.014 596.443 355.284C596.443 364.085 592.885 371.355 585.771 377.095C578.656 382.834 570.158 386.087 560.277 386.852L550.198 387.426H460.079C459.684 387.426 458.893 387.522 457.708 387.713C456.522 387.904 455.731 388 455.336 388C446.64 388 438.538 384.365 431.028 377.095C428.261 374.034 409.684 351.458 375.296 309.367C373.32 306.688 370.553 304.201 366.996 301.905C365.415 308.028 363.34 316.828 360.771 328.308C358.202 339.787 356.324 348.014 355.138 352.988L353.36 362.746C349.407 376.138 341.107 384.174 328.458 386.852L320.158 387.426H262.055C229.249 387.426 196.542 372.886 163.933 343.805C131.324 314.724 101.976 277.129 75.8893 231.021C49.8024 184.912 25.4941 131.247 2.96443 70.0237C0.988142 65.0493 0 59.501 0 53.3787ZM356.324 202.035C348.024 202.035 340.514 199.835 333.794 195.435C327.075 191.035 323.715 185.008 323.715 177.355V45.3432C323.715 37.6903 321.739 32.2377 317.787 28.9852C313.834 25.7327 306.917 24.1065 297.036 24.1065L263.241 25.2544C246.245 25.2544 233.399 28.1243 224.704 33.8639C242.095 41.8994 250.791 54.9093 250.791 72.8935V173.911C250 183.477 246.047 191.417 238.933 197.731C231.818 204.044 223.913 207.201 215.217 207.201C203.36 207.201 194.269 201.653 187.945 190.556C157.115 145.404 134.19 102.548 119.17 61.9882L113.834 47.0651L34.9802 46.4911C29.8419 46.4911 26.9763 46.7781 26.3834 47.3521C25.7905 47.926 25.4941 49.5523 25.4941 52.2308C25.4941 55.6746 25.8893 59.3097 26.6798 63.1361L39.1304 95.2781C72.332 178.312 108.399 243.744 147.332 291.574C186.265 339.404 224.506 363.32 262.055 363.32H321.344C323.715 363.32 325.494 362.65 326.68 361.311C327.866 359.971 328.854 357.389 329.644 353.562L330.83 347.822L342.095 297.314C345.257 290.426 348.024 285.834 350.395 283.538C354.743 279.329 359.881 277.225 365.81 277.225C375.296 277.225 384.98 282.773 394.862 293.87L445.257 355.858C448.419 360.832 451.779 363.32 455.336 363.32H553.162C565.02 363.32 570.949 360.45 570.949 354.71C570.949 352.797 570.356 350.884 569.17 348.97L483.202 245.083C476.482 237.047 473.123 228.438 473.123 219.254C473.123 210.071 476.285 201.27 482.609 192.852C487.747 185.199 497.727 172.476 512.549 154.683C527.372 136.891 540.316 120.246 551.383 104.749C562.451 89.2515 569.763 75.1893 573.32 62.5621L575.099 55.1006C574.704 54.3353 574.506 53.0917 574.506 51.3698C574.506 49.6479 574.308 48.213 573.913 47.0651H480.83C474.901 49.3609 470.158 52.8047 466.601 57.3964L463.043 68.3018C453.162 94.7041 427.273 135.456 385.375 190.556C377.075 198.209 367.391 202.035 356.324 202.035Z" fill="black"/>
</svg>
