<svg width="62" height="42" viewBox="0 0 62 42" fill="none" xmlns="http://www.w3.org/2000/svg">
<path d="M30.897 42.036C22.766 42.036 14.635 42.036 6.505 42.036C6.478 42.036 6.447 42.037 6.415 42.037C2.872 42.037 0 39.165 0 35.622C0 35.59 0 35.559 0.001 35.527V35.532C0.0723333 26.0967 0.0723333 16.6554 0.001 7.20803C0.001 7.19703 0.001 7.18503 0.001 7.17203C0.001 3.61903 2.881 0.739033 6.434 0.739033C22.767 0.739033 39.082 0.739033 55.415 0.739033C55.497 0.735033 55.593 0.733032 55.69 0.733032C59.085 0.733032 61.837 3.48503 61.837 6.88003C61.837 6.98303 61.834 7.08503 61.829 7.18603L61.83 7.17203V35.532C61.837 35.641 61.841 35.768 61.841 35.897C61.841 39.292 59.089 42.044 55.694 42.044C55.59 42.044 55.486 42.041 55.383 42.036L55.398 42.037L30.897 42.036ZM30.897 35.871C30.939 35.871 30.99 35.872 31.04 35.872C39.014 35.872 45.479 29.407 45.479 21.433C45.479 13.459 39.014 6.99403 31.04 6.99403C23.078 6.99403 16.622 13.438 16.601 21.394V21.396C16.65 29.281 22.988 35.669 30.849 35.799H30.861L30.897 35.871ZM12.384 11.049C12.345 9.92803 11.436 9.03103 10.313 9.01203H10.311C9.176 9.01203 8.256 9.93203 8.256 11.067C8.256 12.202 9.176 13.122 10.311 13.122C11.448 13.102 12.364 12.186 12.384 11.051V11.049Z" fill="#CCBA8D"/>
</svg>
