<svg width="50" height="40" viewBox="0 0 50 40" fill="none" xmlns="http://www.w3.org/2000/svg">
<path d="M20.4506 0.259178C19.0919 0.696909 17.9456 1.47652 17.6601 2.15634L17.5398 2.4419L15.6561 2.43301L15.4116 1.93006C15.2253 1.54668 15.063 1.3708 14.7263 1.18701L14.2864 0.945911H11.1062C6.93498 0.945911 6.40895 1.15341 6.40895 2.80355V3.26796L5.69955 3.61478C3.08441 4.8924 1.03538 7.41602 0.225789 10.3546L0.000346207 11.1748V21.2584C0.000346207 32.2698 -0.0327188 31.5584 0.547422 33.1166C1.84798 36.6086 4.86291 39.1352 8.54916 39.8258C9.78859 40.0581 40.2114 40.0581 41.4508 39.8258C45.1371 39.1362 48.152 36.6096 49.4526 33.1166C50.0327 31.5584 49.9997 32.2698 49.9997 21.2584V11.1748L49.7832 10.4031C48.649 6.36468 45.7433 3.61182 41.6342 2.67905C41.02 2.53972 40.2134 2.50514 36.6765 2.46858L32.4532 2.42412L32.3369 2.14745C32.0504 1.46565 30.8209 0.645527 29.4663 0.233488C28.3992 -0.0915987 21.4756 -0.0718366 20.4506 0.259178ZM40.0601 5.82221C43.053 6.12555 45.3856 7.95256 46.3976 10.7874L46.6731 11.5591L46.7012 20.871C46.7332 31.5189 46.7653 31.0218 45.9236 32.7342C44.9758 34.662 43.064 36.1205 40.9288 36.5453C39.7856 36.7726 10.2114 36.7726 9.07118 36.5453C6.91594 36.1145 5.0112 34.6284 4.00923 32.5949C3.24473 31.0426 3.26677 31.4072 3.29883 20.871L3.32689 11.5591L3.63149 10.7163C4.60841 8.01679 6.9961 6.11666 9.77356 5.82912C10.9589 5.7066 38.8517 5.69968 40.0601 5.82122V5.82221ZM9.51706 6.88837C6.37889 7.34191 4.35391 9.89419 4.35391 13.398V14.6954H11.0661L11.2915 14.2369C12.2845 12.2123 14.2844 10.0167 16.4357 8.58692C17.2402 8.05236 19.3614 6.97631 19.6109 6.97631C19.669 6.97631 19.7161 6.93284 19.7161 6.87948C19.7161 6.76091 10.3457 6.76782 9.51706 6.88738V6.88837ZM30.2839 6.85478C30.2839 6.90023 30.4492 6.99509 30.6506 7.06524C33.7206 8.12943 37.462 11.4702 38.7385 14.2863L38.9249 14.6964H45.6471V13.399C45.6471 10.1284 44.1341 7.98418 41.1462 7.01683C40.5581 6.82612 30.2849 6.67395 30.2849 6.85576L30.2839 6.85478ZM24.0707 7.51779C12.6663 8.61558 7.13237 20.9748 14.0931 29.7976C21.7892 39.5512 37.8768 34.7015 38.8858 22.3236C39.5611 14.0343 32.2528 6.73126 24.0707 7.51779ZM26.6638 10.9455C33.2327 11.8753 37.3277 18.963 34.8278 25.0774C31.9482 32.1216 22.708 33.9279 17.4136 28.4804C10.3908 21.2544 16.5819 9.51871 26.6638 10.9455ZM23.8723 12.5719C17.9617 13.395 14.553 19.3474 16.8885 24.7701C19.5698 30.9942 28.5605 31.7659 32.376 26.1001C36.5512 19.9007 31.2949 11.5394 23.8723 12.5719ZM27.7168 13.9098C28.8581 14.2596 29.7118 15.0768 29.7318 15.8366C29.7779 17.5886 26.2289 17.5332 25.0416 15.7635C24.1388 14.4187 25.747 13.3051 27.7168 13.9098ZM22.701 27.2552C23.7821 27.4805 25.3923 28.4557 25.3923 28.8846C25.3923 29.8865 21.7581 29.2393 20.697 28.0486C19.9636 27.2246 20.8564 26.8708 22.701 27.2552ZM41.9128 30.9991C39.8938 31.6167 40.2846 34.3863 42.3897 34.3794C44.5309 34.3725 44.6902 31.2629 42.564 30.9734C42.3486 30.9438 42.056 30.9556 41.9128 31.0001V30.9991Z" fill="white"/>
</svg>
