<svg width="48" height="22" viewBox="0 0 48 22" fill="none" xmlns="http://www.w3.org/2000/svg">
<path d="M23.999 13.381C18.593 13.381 14 14.953 11 17.417V22H37V17.417C34 14.953 29.406 13.381 23.999 13.381V13.381ZM47.87 11.029L23.936 0L0.0119934 11.029L3.99999 12.854V15.661C2.99999 15.868 2.99699 16.392 2.99699 17.015C2.99699 17.383 3.11899 17.814 3.35099 18.072L1.98299 21H6.86299L5.50699 18.07C5.73499 17.812 5.92199 17.432 5.92199 17.064C5.92199 16.442 4.99999 15.867 4.99999 15.66V13.323L9.99999 15.569V15.37C13 12.761 18.271 11.105 23.998 11.105C29.727 11.105 35 12.761 38 15.37V15.569L47.87 11.029V11.029Z" fill="black"/>
</svg>
